<svg width="24" height="24" viewBox="0 0 24 24" fill="none" xmlns="http://www.w3.org/2000/svg">
<rect width="24" height="24" fill="#585F64"/>
<g id="&#208;&#154;&#208;&#190;&#209;&#136;&#208;&#184;&#208;&#186;">
<rect width="1920" height="2649" transform="translate(-883 -1112)" fill="#F8F8F8"/>
<g id="&#208;&#190;&#209;&#132;&#208;&#190;&#209;&#128;&#208;&#188;&#208;&#187;&#208;&#181;&#208;&#189;&#208;&#189;&#209;&#143; &#208;&#183;&#208;&#176;&#208;&#188;&#208;&#190;&#208;&#178;&#208;&#187;&#208;&#181;&#208;&#189;&#208;&#189;&#209;&#143;" clip-path="url(#clip0_2_3)">
<g id="bg" filter="url(#filter0_d_2_3)">
<rect x="-568" y="-724" width="740" height="1561" rx="8" fill="white"/>
</g>
<g id="&#208;&#148;&#208;&#190;&#209;&#129;&#209;&#130;&#208;&#176;&#208;&#178;&#208;&#186;&#208;&#176;" clip-path="url(#clip1_2_3)">
<g id="&#209;&#129;&#208;&#176;&#208;&#188;&#208;&#190;&#208;&#178;&#208;&#184;&#208;&#178;&#209;&#150;&#208;&#183;">
<rect id="bg_2" x="-538" y="-40" width="680" height="103" rx="8" fill="#F8F8F8"/>
<g id="btn-&#208;&#157;&#208;&#176; &#208;&#188;&#208;&#176;&#208;&#191;&#209;&#150;">
<rect x="-20" y="-13" width="142" height="50" rx="8" fill="#FFBC57"/>
<g id="map">
<path id="Vector" d="M21.32 5.05006L15.32 3.05005H15.25C15.2035 3.04538 15.1566 3.04538 15.11 3.05005H14.88H14.75H14.68L9 5.00005L3.32 3.05005C3.16962 3.00047 3.00961 2.9873 2.85314 3.01164C2.69667 3.03598 2.54822 3.09713 2.42 3.19005C2.29076 3.28207 2.18527 3.40352 2.11224 3.54436C2.03921 3.68521 2.00074 3.8414 2 4.00005V18.0001C1.99946 18.2097 2.06482 18.4142 2.18685 18.5847C2.30887 18.7552 2.48138 18.883 2.68 18.9501L8.68 20.9501C8.88145 21.0157 9.09856 21.0157 9.3 20.9501L15 19.0501L20.68 21.0001C20.7862 21.0145 20.8938 21.0145 21 21.0001C21.2091 21.003 21.4132 20.9361 21.58 20.8101C21.7092 20.718 21.8147 20.5966 21.8878 20.4557C21.9608 20.3149 21.9993 20.1587 22 20.0001V6.00005C22.0005 5.79041 21.9352 5.5859 21.8132 5.41543C21.6911 5.24495 21.5186 5.11714 21.32 5.05006ZM8 18.6101L4 17.2801V5.39005L8 6.72005V18.6101ZM14 17.2801L10 18.6101V6.72005L14 5.39005V17.2801ZM20 18.6101L16 17.2801V5.39005L20 6.72005V18.6101Z" fill="white"/>
</g>
</g>
</g>
</g>
</g>
</g>
<defs>
<filter id="filter0_d_2_3" x="-586" y="-735" width="770" height="1591" filterUnits="userSpaceOnUse" color-interpolation-filters="sRGB">
<feFlood flood-opacity="0" result="BackgroundImageFix"/>
<feColorMatrix in="SourceAlpha" type="matrix" values="0 0 0 0 0 0 0 0 0 0 0 0 0 0 0 0 0 0 127 0" result="hardAlpha"/>
<feOffset dx="-3" dy="4"/>
<feGaussianBlur stdDeviation="7.5"/>
<feComposite in2="hardAlpha" operator="out"/>
<feColorMatrix type="matrix" values="0 0 0 0 0 0 0 0 0 0 0 0 0 0 0 0 0 0 0.06 0"/>
<feBlend mode="normal" in2="BackgroundImageFix" result="effect1_dropShadow_2_3"/>
<feBlend mode="normal" in="SourceGraphic" in2="effect1_dropShadow_2_3" result="shape"/>
</filter>
<clipPath id="clip0_2_3">
<rect width="740" height="1561" fill="white" transform="translate(-568 -724)"/>
</clipPath>
<clipPath id="clip1_2_3">
<rect width="680" height="365" fill="white" transform="translate(-538 -302)"/>
</clipPath>
</defs>
</svg>
