<svg width="48" height="32" viewBox="0 0 48 32" fill="none" xmlns="http://www.w3.org/2000/svg">
<rect width="48" height="32" fill="#585F64"/>
<g id="&#208;&#154;&#208;&#190;&#209;&#136;&#208;&#184;&#208;&#186;">
<rect width="1920" height="2649" transform="translate(-630 -1530)" fill="#F8F8F8"/>
<g id="&#208;&#190;&#209;&#132;&#208;&#190;&#209;&#128;&#208;&#188;&#208;&#187;&#208;&#181;&#208;&#189;&#208;&#189;&#209;&#143; &#208;&#183;&#208;&#176;&#208;&#188;&#208;&#190;&#208;&#178;&#208;&#187;&#208;&#181;&#208;&#189;&#208;&#189;&#209;&#143;" clip-path="url(#clip0_2_3)">
<g id="bg" filter="url(#filter0_d_2_3)">
<rect x="-315" y="-1142" width="740" height="1561" rx="8" fill="white"/>
</g>
<g id="&#208;&#158;&#208;&#191;&#208;&#187;&#208;&#176;&#209;&#130;&#208;&#176;" clip-path="url(#clip1_2_3)">
<g id="&#208;&#158;&#208;&#191;&#208;&#187;&#208;&#176;&#209;&#130;&#208;&#176; &#209;&#135;&#208;&#176;&#209;&#129;&#209;&#130;&#209;&#143;&#208;&#188;&#208;&#184;">
<g id="privaty-credit-logo">
<path id="Vector" d="M26.5197 28C22.1262 28 18.2495 25.6 16.0527 22.1895C16.6988 21.4316 26.6489 16.2526 26.6489 16.2526L20.4463 5.64211C22.1262 4.63158 24.3229 4 26.5197 4C33.2393 4 38.6666 9.43158 38.6666 16C38.6666 22.5684 33.2393 28 26.5197 28Z" fill="#FFD700"/>
<path id="Vector_2" d="M15.6659 4.63281L21.7393 15.2433C21.7393 15.2433 11.66 20.5486 11.1431 21.1802C10.1093 19.4118 9.33398 17.2644 9.33398 14.9907C9.46321 10.5697 11.9184 6.65386 15.6659 4.63281Z" fill="#00B200"/>
</g>
</g>
</g>
</g>
</g>
<defs>
<filter id="filter0_d_2_3" x="-333" y="-1153" width="770" height="1591" filterUnits="userSpaceOnUse" color-interpolation-filters="sRGB">
<feFlood flood-opacity="0" result="BackgroundImageFix"/>
<feColorMatrix in="SourceAlpha" type="matrix" values="0 0 0 0 0 0 0 0 0 0 0 0 0 0 0 0 0 0 127 0" result="hardAlpha"/>
<feOffset dx="-3" dy="4"/>
<feGaussianBlur stdDeviation="7.5"/>
<feComposite in2="hardAlpha" operator="out"/>
<feColorMatrix type="matrix" values="0 0 0 0 0 0 0 0 0 0 0 0 0 0 0 0 0 0 0.06 0"/>
<feBlend mode="normal" in2="BackgroundImageFix" result="effect1_dropShadow_2_3"/>
<feBlend mode="normal" in="SourceGraphic" in2="effect1_dropShadow_2_3" result="shape"/>
</filter>
<clipPath id="clip0_2_3">
<rect width="740" height="1561" fill="white" transform="translate(-315 -1142)"/>
</clipPath>
<clipPath id="clip1_2_3">
<rect width="342" height="374" fill="white" transform="translate(-285 -290)"/>
</clipPath>
</defs>
</svg>
